<svg width="173" height="50" viewBox="0 0 173 50" fill="none" xmlns="http://www.w3.org/2000/svg">
<path d="M171.641 43.9069C171.641 46.5518 169.454 48.6941 166.749 48.6941H6.651C3.94716 48.6941 1.75244 46.5518 1.75244 43.9069V5.73003C1.75244 3.08642 3.94716 0.936523 6.651 0.936523H166.748C169.454 0.936523 171.64 3.08642 171.64 5.73003L171.641 43.9069Z" fill="black"/>
<path d="M166.233 0.994067C169.179 0.994067 171.576 3.33135 171.576 6.20372V43.4266C171.576 46.2989 169.179 48.6362 166.233 48.6362H7.16073C4.21472 48.6362 1.8175 46.2989 1.8175 43.4266V6.20372C1.8175 3.33135 4.21472 0.994067 7.16073 0.994067H166.233ZM166.233 -9.15527e-05H7.16073C3.66274 -9.15527e-05 0.797852 2.79317 0.797852 6.20372V43.4266C0.797852 46.8371 3.66274 49.6304 7.16073 49.6304H166.233C169.731 49.6304 172.596 46.8371 172.596 43.4266V6.20372C172.596 2.79317 169.731 -9.15527e-05 166.233 -9.15527e-05Z" fill="#A6A6A6"/>
<path d="M39.1377 24.5473C39.1008 20.5483 42.496 18.6028 42.6513 18.5122C40.7284 15.7788 37.748 15.4053 36.7007 15.3756C34.1975 15.1187 31.7695 16.8359 30.4943 16.8359C29.1938 16.8359 27.2302 15.4004 25.1139 15.4426C22.3906 15.4835 19.8429 17.0208 18.4456 19.408C15.5619 24.2756 17.7126 31.4285 20.4753 35.363C21.8574 37.2899 23.4723 39.4414 25.586 39.3657C27.6539 39.2826 28.4264 38.0803 30.9219 38.0803C33.3945 38.0803 34.1199 39.3657 36.2756 39.3173C38.495 39.2826 39.8923 37.3817 41.226 35.4374C42.8231 33.2289 43.4644 31.0538 43.4899 30.9422C43.4377 30.9248 39.1797 29.3403 39.1377 24.5473Z" fill="white"/>
<path d="M35.0654 12.7873C36.1777 11.4312 36.9387 9.58618 36.7274 7.71387C35.1176 7.78335 33.1044 8.79953 31.9451 10.1259C30.9194 11.2947 30.0031 13.2104 30.2398 15.012C32.0482 15.1435 33.9048 14.1224 35.0654 12.7873Z" fill="white"/>
<path d="M63.2177 12.4187C63.2177 13.879 62.7685 14.9784 61.8714 15.7166C61.0404 16.3978 59.8594 16.739 58.3298 16.739C57.5713 16.739 56.9223 16.7067 56.3789 16.6422V8.66288C57.0877 8.55122 57.8513 8.49414 58.6759 8.49414C60.133 8.49414 61.2312 8.80309 61.9719 9.42099C62.8016 10.1195 63.2177 11.1184 63.2177 12.4187ZM61.8115 12.4547C61.8115 11.508 61.5545 10.7821 61.0404 10.2759C60.5262 9.77088 59.7754 9.51777 58.7866 9.51777C58.3667 9.51777 58.0091 9.54507 57.7126 9.60214V15.6682C57.8767 15.693 58.1771 15.7042 58.6136 15.7042C59.6342 15.7042 60.4219 15.4275 60.9767 14.8741C61.5316 14.3208 61.8115 13.5143 61.8115 12.4547Z" fill="white"/>
<path d="M70.6738 13.6944C70.6738 14.594 70.4104 15.331 69.8836 15.9092C69.3313 16.5035 68.5995 16.8 67.6858 16.8C66.8052 16.8 66.104 16.5159 65.581 15.9452C65.0592 15.3756 64.7983 14.6572 64.7983 13.7912C64.7983 12.8854 65.0669 12.1422 65.6064 11.5653C66.146 10.9883 66.8714 10.6992 67.7851 10.6992C68.6657 10.6992 69.3733 10.9834 69.909 11.5529C70.418 12.1062 70.6738 12.8209 70.6738 13.6944ZM69.2905 13.7366C69.2905 13.1969 69.1709 12.7341 68.9329 12.3482C68.653 11.8817 68.2547 11.6484 67.7367 11.6484C67.201 11.6484 66.7937 11.8817 66.5138 12.3482C66.2745 12.7341 66.1562 13.2043 66.1562 13.7602C66.1562 14.2999 66.2758 14.7627 66.5138 15.1486C66.8026 15.6151 67.2048 15.8484 67.724 15.8484C68.233 15.8484 68.6326 15.6114 68.9202 15.1362C69.1671 14.7429 69.2905 14.2763 69.2905 13.7366Z" fill="white"/>
<path d="M80.6712 10.8184L78.7941 16.6673H77.5725L76.7949 14.1275C76.5977 13.4934 76.4373 12.8631 76.3126 12.2378H76.2884C76.1726 12.8805 76.0123 13.5096 75.8061 14.1275L74.9802 16.6673H73.7446L71.9795 10.8184H73.3501L74.0283 13.5989C74.1925 14.2565 74.3274 14.8831 74.4356 15.4762H74.4597C74.559 14.9873 74.7232 14.3645 74.9548 13.6113L75.8061 10.8196H76.8929L77.7086 13.5518C77.9059 14.218 78.0662 14.8595 78.1897 15.4774H78.2266C78.3169 14.8757 78.4531 14.2342 78.6338 13.5518L79.3617 10.8196H80.6712V10.8184Z" fill="white"/>
<path d="M87.5849 16.6671H86.2513V13.317C86.2513 12.2847 85.8491 11.7686 85.0423 11.7686C84.6466 11.7686 84.3271 11.91 84.079 12.1942C83.8334 12.4783 83.7087 12.8133 83.7087 13.1967V16.6659H82.375V12.4895C82.375 11.9758 82.3585 11.4187 82.3267 10.8157H83.4987L83.5611 11.7301H83.598C83.7532 11.446 83.9848 11.2115 84.289 11.0241C84.6504 10.8057 85.0551 10.6953 85.4979 10.6953C86.0578 10.6953 86.5236 10.8715 86.8939 11.2251C87.3546 11.6581 87.5849 12.3046 87.5849 13.1632V16.6671V16.6671Z" fill="white"/>
<path d="M91.2625 16.667H89.9302V8.13428H91.2625V16.667Z" fill="white"/>
<path d="M99.1147 13.6944C99.1147 14.594 98.8513 15.331 98.3245 15.9092C97.7722 16.5035 97.0392 16.8 96.1267 16.8C95.2448 16.8 94.5436 16.5159 94.0219 15.9452C93.5001 15.3756 93.2393 14.6572 93.2393 13.7912C93.2393 12.8854 93.5078 12.1422 94.0473 11.5653C94.5869 10.9883 95.3123 10.6992 96.2247 10.6992C97.1066 10.6992 97.8129 10.9834 98.3499 11.5529C98.859 12.1062 99.1147 12.8209 99.1147 13.6944ZM97.7302 13.7366C97.7302 13.1969 97.6106 12.7341 97.3726 12.3482C97.0939 11.8817 96.6943 11.6484 96.1776 11.6484C95.6406 11.6484 95.2334 11.8817 94.9547 12.3482C94.7154 12.7341 94.5971 13.2043 94.5971 13.7602C94.5971 14.2999 94.7167 14.7627 94.9547 15.1486C95.2436 15.6151 95.6457 15.8484 96.1649 15.8484C96.6739 15.8484 97.0723 15.6114 97.3599 15.1362C97.608 14.7429 97.7302 14.2763 97.7302 13.7366Z" fill="white"/>
<path d="M105.569 16.6673H104.371L104.272 15.9935H104.235C103.825 16.5308 103.241 16.8 102.483 16.8C101.917 16.8 101.458 16.6226 101.114 16.2702C100.801 15.9501 100.644 15.5518 100.644 15.0791C100.644 14.3644 100.949 13.8197 101.564 13.4425C102.177 13.0654 103.04 12.8805 104.151 12.8892V12.78C104.151 12.0095 103.736 11.6248 102.905 11.6248C102.314 11.6248 101.792 11.77 101.341 12.0579L101.07 11.2042C101.628 10.868 102.316 10.6992 103.128 10.6992C104.696 10.6992 105.482 11.5057 105.482 13.1187V15.2727C105.482 15.8571 105.512 16.3223 105.569 16.6673ZM104.184 14.6572V13.7552C102.713 13.7304 101.978 14.1237 101.978 14.9339C101.978 15.2392 102.062 15.4675 102.233 15.6201C102.405 15.7727 102.624 15.8484 102.885 15.8484C103.178 15.8484 103.451 15.7578 103.701 15.5779C103.951 15.3967 104.105 15.1672 104.163 14.8855C104.177 14.8223 104.184 14.7453 104.184 14.6572Z" fill="white"/>
<path d="M113.147 16.667H111.964L111.902 15.7277H111.865C111.487 16.4424 110.843 16.7998 109.938 16.7998C109.215 16.7998 108.613 16.5231 108.136 15.9697C107.659 15.4163 107.421 14.6979 107.421 13.8157C107.421 12.869 107.679 12.1022 108.198 11.5166C108.701 10.9707 109.317 10.6977 110.05 10.6977C110.856 10.6977 111.419 10.962 111.74 11.4918H111.765V8.13428H113.1V15.0912C113.1 15.6607 113.116 16.1856 113.147 16.667ZM111.765 14.2004V13.2251C111.765 13.0564 111.753 12.9199 111.729 12.8157C111.653 12.503 111.492 12.24 111.246 12.0278C110.998 11.8156 110.699 11.7089 110.354 11.7089C109.857 11.7089 109.467 11.9012 109.181 12.2871C108.897 12.673 108.753 13.1656 108.753 13.7673C108.753 14.3455 108.889 14.8145 109.163 15.1756C109.452 15.5602 109.841 15.7526 110.329 15.7526C110.766 15.7526 111.116 15.5925 111.382 15.2711C111.639 14.9746 111.765 14.6173 111.765 14.2004Z" fill="white"/>
<path d="M124.553 13.6944C124.553 14.594 124.29 15.331 123.763 15.9092C123.211 16.5035 122.48 16.8 121.565 16.8C120.686 16.8 119.985 16.5159 119.46 15.9452C118.939 15.3756 118.678 14.6572 118.678 13.7912C118.678 12.8854 118.946 12.1422 119.486 11.5653C120.025 10.9883 120.751 10.6992 121.666 10.6992C122.545 10.6992 123.254 10.9834 123.788 11.5529C124.297 12.1062 124.553 12.8209 124.553 13.6944ZM123.171 13.7366C123.171 13.1969 123.052 12.7341 122.814 12.3482C122.532 11.8817 122.135 11.6484 121.616 11.6484C121.082 11.6484 120.674 11.8817 120.393 12.3482C120.154 12.7341 120.036 13.2043 120.036 13.7602C120.036 14.2999 120.155 14.7627 120.393 15.1486C120.682 15.6151 121.084 15.8484 121.603 15.8484C122.112 15.8484 122.513 15.6114 122.801 15.1362C123.046 14.7429 123.171 14.2763 123.171 13.7366Z" fill="white"/>
<path d="M131.724 16.6671H130.392V13.317C130.392 12.2847 129.99 11.7686 129.182 11.7686C128.786 11.7686 128.466 11.91 128.22 12.1942C127.973 12.4783 127.849 12.8133 127.849 13.1967V16.6659H126.514V12.4895C126.514 11.9758 126.499 11.4187 126.467 10.8157H127.638L127.7 11.7301H127.737C127.894 11.446 128.125 11.2115 128.428 11.0241C128.791 10.8057 129.194 10.6953 129.639 10.6953C130.197 10.6953 130.663 10.8715 131.033 11.2251C131.495 11.6581 131.724 12.3046 131.724 13.1632V16.6671V16.6671Z" fill="white"/>
<path d="M140.7 11.792H139.231V14.6333C139.231 15.3554 139.492 15.7165 140.009 15.7165C140.248 15.7165 140.447 15.6967 140.603 15.6557L140.638 16.6421C140.374 16.7389 140.028 16.7873 139.602 16.7873C139.075 16.7873 138.665 16.631 138.369 16.3183C138.071 16.0056 137.923 15.4795 137.923 14.7413V11.792H137.046V10.818H137.923V9.74596L139.23 9.36133V10.8167H140.699V11.792H140.7Z" fill="white"/>
<path d="M147.76 16.667H146.425V13.3418C146.425 12.2933 146.023 11.7685 145.218 11.7685C144.599 11.7685 144.177 12.0725 143.945 12.6804C143.906 12.8082 143.883 12.9646 143.883 13.1482V16.6658H142.55V8.13428H143.883V11.6593H143.908C144.328 11.0178 144.93 10.6977 145.71 10.6977C146.262 10.6977 146.719 10.8739 147.082 11.2275C147.534 11.668 147.76 12.3231 147.76 13.1891V16.667V16.667Z" fill="white"/>
<path d="M155.043 13.4661C155.043 13.6993 155.025 13.8954 154.993 14.0554H150.994C151.011 14.6336 151.202 15.0741 151.573 15.3793C151.911 15.6523 152.348 15.7888 152.882 15.7888C153.474 15.7888 154.013 15.6969 154.499 15.5121L154.708 16.4153C154.139 16.6561 153.47 16.7764 152.695 16.7764C151.766 16.7764 151.034 16.5096 150.505 15.9761C149.973 15.4426 149.709 14.7267 149.709 13.8284C149.709 12.9462 149.955 12.2116 150.45 11.626C150.967 11.0007 151.665 10.688 152.547 10.688C153.41 10.688 154.066 11.0007 154.508 11.626C154.866 12.1223 155.043 12.7365 155.043 13.4661ZM153.77 13.1298C153.78 12.7439 153.693 12.4114 153.512 12.131C153.28 11.7699 152.928 11.5888 152.451 11.5888C152.015 11.5888 151.66 11.765 151.389 12.1186C151.168 12.4002 151.037 12.7365 150.994 13.1298H153.77Z" fill="white"/>
<path d="M69.0655 39.0887H66.1754L64.5924 34.2386H59.0897L57.5817 39.0887H54.7681L60.2198 22.5767H63.587L69.0655 39.0887ZM64.1151 32.2037L62.6835 27.8921C62.5321 27.4516 62.2483 26.4143 61.8296 24.7815H61.7787C61.612 25.4838 61.3435 26.521 60.9744 27.8921L59.5682 32.2037H64.1151V32.2037Z" fill="white"/>
<path d="M83.0851 32.9897C83.0851 35.0146 82.5239 36.6152 81.4014 37.7902C80.3961 38.8361 79.1477 39.3585 77.6575 39.3585C76.049 39.3585 74.8935 38.7952 74.1898 37.6686H74.1389V43.9406H71.4257V31.1025C71.4257 29.8295 71.3914 28.5229 71.3252 27.1829H73.7113L73.8627 29.0701H73.9136C74.8184 27.6482 76.1915 26.9385 78.0342 26.9385C79.4748 26.9385 80.6774 27.4931 81.6394 28.6036C82.604 29.7153 83.0851 31.1769 83.0851 32.9897ZM80.321 33.0865C80.321 31.9276 80.0538 30.9722 79.5168 30.2203C78.9301 29.4361 78.1424 29.044 77.1549 29.044C76.4855 29.044 75.8772 29.2624 75.3338 29.693C74.7891 30.1272 74.4328 30.6943 74.2661 31.3965C74.1821 31.7241 74.1401 31.9921 74.1401 32.203V34.1882C74.1401 35.0543 74.4125 35.7851 74.9571 36.3819C75.5018 36.9787 76.2093 37.2765 77.0798 37.2765C78.1017 37.2765 78.897 36.8919 79.4659 36.1251C80.036 35.357 80.321 34.3446 80.321 33.0865Z" fill="white"/>
<path d="M97.1307 32.9897C97.1307 35.0146 96.5695 36.6152 95.4458 37.7902C94.4417 38.8361 93.1933 39.3585 91.7031 39.3585C90.0946 39.3585 88.9391 38.7952 88.2366 37.6686H88.1857V43.9406H85.4726V31.1025C85.4726 29.8295 85.4382 28.5229 85.3721 27.1829H87.7582L87.9096 29.0701H87.9605C88.864 27.6482 90.2371 26.9385 92.0811 26.9385C93.5204 26.9385 94.723 27.4931 95.6876 28.6036C96.6484 29.7153 97.1307 31.1769 97.1307 32.9897ZM94.3666 33.0865C94.3666 31.9276 94.0981 30.9722 93.5611 30.2203C92.9744 29.4361 92.1893 29.044 91.2005 29.044C90.5298 29.044 89.9228 29.2624 89.3781 29.693C88.8335 30.1272 88.4784 30.6943 88.3117 31.3965C88.229 31.7241 88.1857 31.9921 88.1857 32.203V34.1882C88.1857 35.0543 88.4581 35.7851 89.0002 36.3819C89.5448 36.9775 90.2524 37.2765 91.1254 37.2765C92.1473 37.2765 92.9426 36.8919 93.5115 36.1251C94.0816 35.357 94.3666 34.3446 94.3666 33.0865Z" fill="white"/>
<path d="M112.835 34.4584C112.835 35.863 112.334 37.0057 111.33 37.8879C110.227 38.852 108.691 39.3334 106.717 39.3334C104.895 39.3334 103.434 38.9909 102.328 38.3048L102.957 36.1C104.148 36.8022 105.455 37.1546 106.879 37.1546C107.901 37.1546 108.696 36.9288 109.267 36.4796C109.836 36.0305 110.12 35.4275 110.12 34.6756C110.12 34.0056 109.886 33.441 109.416 32.9832C108.949 32.5253 108.169 32.0998 107.08 31.7064C104.115 30.6282 102.634 29.0487 102.634 26.9717C102.634 25.6143 103.153 24.5013 104.192 23.6353C105.228 22.768 106.61 22.335 108.339 22.335C109.88 22.335 111.16 22.5968 112.182 23.1191L111.503 25.2756C110.549 24.7693 109.47 24.5162 108.262 24.5162C107.308 24.5162 106.562 24.7458 106.028 25.2024C105.576 25.6106 105.349 26.1081 105.349 26.6975C105.349 27.3501 105.608 27.8899 106.127 28.3142C106.579 28.7063 107.399 29.1306 108.59 29.5885C110.048 30.1604 111.118 30.8292 111.806 31.596C112.492 32.3603 112.835 33.3169 112.835 34.4584Z" fill="white"/>
<path d="M121.805 29.1677H118.814V34.9484C118.814 36.4187 119.341 37.1532 120.397 37.1532C120.882 37.1532 121.284 37.1123 121.602 37.0304L121.677 39.0392C121.143 39.234 120.439 39.332 119.567 39.332C118.496 39.332 117.659 39.0131 117.054 38.3766C116.452 37.7389 116.149 36.6693 116.149 35.1668V29.1652H114.368V27.18H116.149V25L118.814 24.2158V27.18H121.805V29.1677Z" fill="white"/>
<path d="M135.298 33.0378C135.298 34.8679 134.761 36.3705 133.689 37.5455C132.566 38.7552 131.074 39.3582 129.215 39.3582C127.423 39.3582 125.997 38.7788 124.933 37.6199C123.869 36.4611 123.337 34.9982 123.337 33.2351C123.337 31.3901 123.884 29.8788 124.982 28.7038C126.078 27.5276 127.557 26.9395 129.416 26.9395C131.208 26.9395 132.65 27.5189 133.738 28.679C134.779 29.8044 135.298 31.2573 135.298 33.0378ZM132.483 33.1234C132.483 32.0253 132.242 31.0836 131.755 30.2982C131.186 29.3478 130.373 28.8738 129.319 28.8738C128.229 28.8738 127.4 29.349 126.831 30.2982C126.344 31.0848 126.103 32.0415 126.103 33.173C126.103 34.2711 126.344 35.2129 126.831 35.997C127.418 36.9474 128.238 37.4214 129.295 37.4214C130.331 37.4214 131.144 36.9375 131.731 35.9722C132.231 35.1719 132.483 34.2202 132.483 33.1234Z" fill="white"/>
<path d="M144.117 29.5093C143.848 29.4609 143.562 29.4361 143.262 29.4361C142.307 29.4361 141.569 29.7873 141.05 30.4908C140.598 31.1112 140.372 31.8953 140.372 32.842V39.0893H137.66L137.685 30.9325C137.685 29.5602 137.651 28.3108 137.583 27.1841H139.947L140.046 29.4622H140.121C140.407 28.6793 140.859 28.049 141.478 27.5762C142.082 27.1506 142.735 26.9385 143.439 26.9385C143.689 26.9385 143.916 26.9558 144.117 26.9869V29.5093Z" fill="white"/>
<path d="M156.251 32.5726C156.251 33.0466 156.219 33.4461 156.152 33.7725H148.012C148.044 34.9487 148.437 35.8483 149.193 36.4686C149.879 37.0233 150.766 37.3012 151.855 37.3012C153.061 37.3012 154.16 37.1138 155.149 36.7379L155.574 38.5742C154.418 39.0656 153.054 39.31 151.48 39.31C149.586 39.31 148.1 38.7665 147.018 37.6809C145.939 36.5952 145.398 35.1373 145.398 33.3084C145.398 31.513 145.901 30.0179 146.908 28.8255C147.961 27.5525 149.385 26.916 151.177 26.916C152.937 26.916 154.27 27.5525 155.174 28.8255C155.891 29.8368 156.251 31.0875 156.251 32.5726ZM153.664 31.8865C153.682 31.1023 153.505 30.4249 153.137 29.8529C152.667 29.1171 151.946 28.7499 150.975 28.7499C150.088 28.7499 149.366 29.1084 148.815 29.8281C148.364 30.4001 148.095 31.0862 148.012 31.8853H153.664V31.8865Z" fill="white"/>
</svg>
