<svg width="172" height="50" viewBox="0 0 172 50" fill="none" xmlns="http://www.w3.org/2000/svg">
<path d="M165.435 49.6304H6.36288C2.86489 49.6304 0 46.8371 0 43.4266V6.20372C0 2.79317 2.86489 -8.96454e-05 6.36288 -8.96454e-05H165.435C168.933 -8.96454e-05 171.798 2.79317 171.798 6.20372V43.4266C171.798 46.8371 168.933 49.6304 165.435 49.6304Z" fill="black"/>
<path d="M165.435 0.994069C168.381 0.994069 170.778 3.33136 170.778 6.20372V43.4266C170.778 46.2989 168.381 48.6362 165.435 48.6362H6.36288C3.41687 48.6362 1.01965 46.2989 1.01965 43.4266V6.20372C1.01965 3.33136 3.41687 0.994069 6.36288 0.994069H165.435ZM165.435 -8.96454e-05H6.36288C2.86489 -8.96454e-05 0 2.79317 0 6.20372V43.4266C0 46.8371 2.86489 49.6304 6.36288 49.6304H165.435C168.933 49.6304 171.798 46.8371 171.798 43.4266V6.20372C171.798 2.79317 168.933 -8.96454e-05 165.435 -8.96454e-05Z" fill="#A6A6A6"/>
<path d="M14.7542 11.8492C14.4407 12.1692 14.2593 12.6673 14.2593 13.3125V36.3239C14.2593 36.9691 14.4407 37.4672 14.7542 37.7872L14.8316 37.8574L28.0571 24.9678V24.6634L14.8316 11.7738L14.7542 11.8492Z" fill="white"/>
<path d="M34.0618 29.2666L29.6582 24.9679V24.6635L34.0671 20.3648L34.1659 20.4207L39.3872 23.3173C40.8773 24.1394 40.8773 25.4921 39.3872 26.3193L34.1659 29.2107L34.0618 29.2666V29.2666Z" fill="white"/>
<path d="M33.3652 30.011L28.8575 25.616L15.5547 38.5876C16.0496 39.0949 16.8567 39.156 17.7745 38.6487L33.3652 30.011" fill="white"/>
<path d="M33.3652 19.6202L17.7745 10.9824C16.8567 10.4804 16.0496 10.5415 15.5547 11.0488L28.8575 24.0151L33.3652 19.6202Z" fill="white"/>
<path d="M60.3422 12.7098C60.3422 13.7458 60.0241 14.5756 59.3973 15.1944C58.6767 15.928 57.7382 16.2972 56.5881 16.2972C55.4889 16.2972 54.5504 15.9218 53.7805 15.182C53.009 14.4314 52.624 13.5101 52.624 12.4074C52.624 11.3046 53.009 10.3834 53.7805 9.63892C54.5504 8.89291 55.4889 8.51758 56.5881 8.51758C57.1353 8.51758 57.6571 8.6277 58.155 8.83242C58.6513 9.0387 59.0553 9.31787 59.348 9.66218L58.6831 10.3167C58.1725 9.72887 57.4773 9.43884 56.5881 9.43884C55.7864 9.43884 55.0912 9.71181 54.5011 10.2624C53.9173 10.8145 53.6246 11.5295 53.6246 12.4074C53.6246 13.2852 53.9173 14.0064 54.5011 14.5585C55.0912 15.1029 55.7864 15.3821 56.5881 15.3821C57.4391 15.3821 58.155 15.1029 58.7197 14.5523C59.0919 14.1879 59.3035 13.6853 59.3591 13.0433H56.5881V12.1468H60.2849C60.3295 12.3407 60.3422 12.5283 60.3422 12.7098V12.7098Z" fill="white" stroke="white" stroke-width="0.050903" stroke-miterlimit="10"/>
<path d="M66.2071 9.60199H62.7345V11.9594H65.8651V12.8559H62.7345V15.2133H66.2071V16.1268H61.7515V8.68848H66.2071V9.60199Z" fill="white" stroke="white" stroke-width="0.050903" stroke-miterlimit="10"/>
<path d="M70.3464 16.1268H69.3634V9.60199H67.2334V8.68848H72.478V9.60199H70.3464V16.1268V16.1268Z" fill="white" stroke="white" stroke-width="0.050903" stroke-miterlimit="10"/>
<path d="M76.2734 16.1268V8.68848H77.2549V16.1268H76.2734Z" fill="white" stroke="white" stroke-width="0.050903" stroke-miterlimit="10"/>
<path d="M81.6052 16.1268H80.6301V9.60199H78.4922V8.68848H83.7431V9.60199H81.6052V16.1268Z" fill="white" stroke="white" stroke-width="0.050903" stroke-miterlimit="10"/>
<path d="M93.6722 15.1696C92.9198 15.9218 91.9876 16.2972 90.8757 16.2972C89.7575 16.2972 88.8253 15.9218 88.0729 15.1696C87.3221 14.4189 86.9482 13.4977 86.9482 12.4074C86.9482 11.317 87.3221 10.3958 88.0729 9.64512C88.8253 8.89291 89.7575 8.51758 90.8757 8.51758C91.9813 8.51758 92.9134 8.89291 93.6659 9.65132C94.423 10.4082 94.7969 11.3233 94.7969 12.4074C94.7969 13.4977 94.423 14.4189 93.6722 15.1696ZM88.7998 14.5461C89.3661 15.1029 90.0549 15.3821 90.8757 15.3821C91.6902 15.3821 92.3853 15.1029 92.9453 14.5461C93.51 13.9893 93.7963 13.2743 93.7963 12.4074C93.7963 11.5404 93.51 10.8254 92.9453 10.2686C92.3853 9.71181 91.6902 9.43264 90.8757 9.43264C90.0549 9.43264 89.3661 9.71181 88.7998 10.2686C88.2351 10.8254 87.9488 11.5404 87.9488 12.4074C87.9488 13.2743 88.2351 13.9893 88.7998 14.5461V14.5461Z" fill="white" stroke="white" stroke-width="0.050903" stroke-miterlimit="10"/>
<path d="M96.1763 16.1268V8.68848H97.3693L101.079 14.4735H101.122L101.079 13.0435V8.68848H102.06V16.1268H101.036L97.1514 10.0564H97.1084L97.1514 11.4926V16.1268H96.1763V16.1268Z" fill="white" stroke="white" stroke-width="0.050903" stroke-miterlimit="10"/>
<path d="M86.707 26.9894C83.718 26.9894 81.2763 29.2072 81.2763 32.2672C81.2763 35.3025 83.718 37.5436 86.707 37.5436C89.7023 37.5436 92.1441 35.3025 92.1441 32.2672C92.1441 29.2072 89.7023 26.9894 86.707 26.9894ZM86.707 35.4653C85.067 35.4653 83.656 34.1454 83.656 32.2672C83.656 30.3642 85.067 29.0676 86.707 29.0676C88.347 29.0676 89.7644 30.3642 89.7644 32.2672C89.7644 34.1454 88.347 35.4653 86.707 35.4653V35.4653ZM74.8577 26.9894C71.8624 26.9894 69.427 29.2072 69.427 32.2672C69.427 35.3025 71.8624 37.5436 74.8577 37.5436C77.8515 37.5436 80.2884 35.3025 80.2884 32.2672C80.2884 29.2072 77.8515 26.9894 74.8577 26.9894ZM74.8577 35.4653C73.2161 35.4653 71.8004 34.1454 71.8004 32.2672C71.8004 30.3642 73.2161 29.0676 74.8577 29.0676C76.4978 29.0676 77.9087 30.3642 77.9087 32.2672C77.9087 34.1454 76.4978 35.4653 74.8577 35.4653ZM60.7576 28.607V30.8497H66.2503C66.0897 32.1028 65.6602 33.0241 65.0016 33.6662C64.1999 34.4417 62.9512 35.3025 60.7576 35.3025C57.3773 35.3025 54.7304 32.6426 54.7304 29.3468C54.7304 26.051 57.3773 23.3912 60.7576 23.3912C62.5853 23.3912 63.9152 24.0875 64.8966 24.9902L66.5176 23.4098C65.1448 22.1318 63.3186 21.15 60.7576 21.15C56.1222 21.15 52.2266 24.8273 52.2266 29.3468C52.2266 33.8663 56.1222 37.5436 60.7576 37.5436C63.263 37.5436 65.1448 36.7433 66.6242 35.242C68.1401 33.7639 68.6126 31.6856 68.6126 30.0075C68.6126 29.4864 68.568 29.0071 68.4885 28.607H60.7576ZM118.415 30.3456C117.968 29.1653 116.589 26.9894 113.779 26.9894C110.996 26.9894 108.678 29.1281 108.678 32.2672C108.678 35.2234 110.972 37.5436 114.047 37.5436C116.533 37.5436 117.968 36.0655 118.558 35.2047L116.713 34.0059C116.097 34.8837 115.259 35.4653 114.047 35.4653C112.843 35.4653 111.979 34.9271 111.425 33.8663L118.665 30.9458L118.415 30.3456V30.3456ZM111.034 32.1028C110.972 30.068 112.655 29.0258 113.861 29.0258C114.805 29.0258 115.607 29.4864 115.874 30.1455L111.034 32.1028V32.1028ZM105.15 37.2225H107.53V21.713H105.15V37.2225ZM101.253 28.165H101.173C100.639 27.5477 99.6189 26.9894 98.3272 26.9894C95.6166 26.9894 93.1383 29.3096 93.1383 32.2843C93.1383 35.242 95.6166 37.5436 98.3272 37.5436C99.6189 37.5436 100.639 36.9806 101.173 36.3447H101.253V37.1016C101.253 39.1193 100.147 40.2035 98.3638 40.2035C96.9099 40.2035 96.0079 39.1798 95.6357 38.3191L93.5662 39.1612C94.1627 40.5602 95.7423 42.2817 98.3638 42.2817C101.154 42.2817 103.508 40.6812 103.508 36.7867V27.3104H101.253V28.165V28.165ZM98.5308 35.4653C96.8908 35.4653 95.518 34.1268 95.518 32.2843C95.518 30.4247 96.8908 29.0676 98.5308 29.0676C100.147 29.0676 101.421 30.4247 101.421 32.2843C101.421 34.1268 100.147 35.4653 98.5308 35.4653V35.4653ZM129.556 21.713H123.865V37.2225H126.238V31.346H129.556C132.192 31.346 134.777 29.4864 134.777 26.5287C134.777 23.5726 132.186 21.713 129.556 21.713V21.713ZM129.618 29.1886H126.238V23.8704H129.618C131.39 23.8704 132.402 25.305 132.402 26.5287C132.402 27.7292 131.39 29.1886 129.618 29.1886ZM144.289 26.9599C142.575 26.9599 140.791 27.6981 140.058 29.3344L142.164 30.1952C142.618 29.3344 143.451 29.0552 144.332 29.0552C145.564 29.0552 146.812 29.7764 146.831 31.0497V31.2126C146.402 30.9706 145.482 30.6124 144.351 30.6124C142.083 30.6124 139.772 31.8299 139.772 34.102C139.772 36.1803 141.63 37.5188 143.718 37.5188C145.315 37.5188 146.197 36.8162 146.75 35.9988H146.831V37.1977H149.124V31.2483C149.124 28.4984 147.018 26.9599 144.289 26.9599ZM144.003 35.4591C143.227 35.4591 142.145 35.0838 142.145 34.1454C142.145 32.945 143.494 32.4844 144.662 32.4844C145.707 32.4844 146.197 32.7093 146.831 33.0055C146.645 34.4417 145.378 35.4591 144.003 35.4591V35.4591ZM157.475 27.2995L154.747 34.0229H154.666L151.845 27.2995H149.286L153.524 36.6952L151.106 41.9235H153.586L160.116 27.2995H157.475V27.2995ZM136.081 37.2225H138.461V21.713H136.081V37.2225Z" fill="white"/>
</svg>
